<?xml version="1.0" encoding="UTF-8"?>
<svg id="Lag_2" xmlns="http://www.w3.org/2000/svg" viewBox="0 0 353.04 123.53">
  <defs>
    <style>
      .cls-1 {
        fill: #e78c3b;
      }
    </style>
  </defs>
  <g id="Layer_1">
    <g>
      <path class="cls-1" d="M39.06,27.38c-9.53,0-17.86,2.75-22.1,8h-.61V0H0v93.77h16.35v-40.76c0-8.12,7.42-13.75,17.87-13.75,9.08,0,15.9,5.63,15.9,13.75v40.76h16.35v-42.13c0-13.63-9.08-24.26-27.41-24.26Z"/>
      <path class="cls-1" d="M93.28,25.38c-10.08,0-17.41,3.63-22.57,10l6.08,8.88c3.89-4.37,8.36-7.25,14.89-7.25,8.47,0,13.51,5.5,13.51,14.13v3.37h-12.02c-14.67,0-23.94,7.38-23.94,19.63s7.56,19.63,18.9,19.63c8.59,0,14.54-4.5,16.83-9.5h.46c-.11,1.63-.23,4.5-.23,5.88l.03,3.54v.08h12v-43.01c0-15.75-9.16-25.38-23.94-25.38ZM105.19,70.64c0,6.5-5.27,12.38-13.63,12.38-6.53,0-9.85-3.63-9.85-9.38s4.01-9.37,12.14-9.37h11.34v6.37Z"/>
      <path class="cls-1" d="M152.24,56.14l-8.31-4c-6.04-2.88-8.56-4.88-8.56-8.63,0-4.37,3.53-7.13,8.56-7.13,6.17,0,10.33,3.88,12.59,9.01l9.7-5.63c-3.4-8-10.45-14.38-22.54-14.38s-21.15,8.13-21.15,18.26,6.29,15,14.1,18.63l7.55,3.5c6.05,2.75,8.57,5.12,8.57,8.87,0,5-3.78,7.88-9.2,7.88-7.68,0-12.33-5.25-13.72-9.88l-10.07,6.25c2.64,7.26,9.69,14.88,23.29,14.88,14.36,0,23.17-7.87,23.17-19.13,0-9.87-6.04-14.75-13.98-18.5Z"/>
      <path class="cls-1" d="M208.38,40.01v-11.63h-21.65V11.5h-16.35v60.89c0,14.38,9.24,21.51,26.19,21.51,4.7,0,7.73-.5,9.85-1.25v-11.63c-1.82.62-3.79.75-5.91.75-9.54,0-13.78-3-13.78-10.75v-31.01h21.65Z"/>
      <path class="cls-1" d="M252.45,28.38v39.39c0,8.25-5.56,13.75-13.13,13.75s-13.12-5.5-13.12-13.75V28.38h-12.77v39.39c0,15,9.69,25.88,22.94,25.88,9.93,0,14.66-4.75,15.96-7.75h.36c-.12,1.62-.24,3.25-.24,4.37v4.63c0,2.52-.34,4.81-1.01,6.82-2.05,6.28-7.22,9.93-14.84,9.93s-11.82-3.12-15.13-8.62l-8.75,8.25c5.08,8.25,12.3,12.25,24.24,12.25,16.55,0,25.15-9.3,27.54-21.81.49-2.49.72-5.12.72-7.82V28.38h-12.77Z"/>
    </g>
    <path class="cls-1" d="M351.17,57.33c-3.27-4.38-7.97-6.63-12.72-9.07.06-1.34-.12-1.96,1.4-1.95,2.23.01,14.51,2.06,13.01-3.23-.7-2.49-1.15-4.53-2.96-6.46-1.91-2.04-4.49-3.5-6.97-4.72-8.89-4.35-18.68-3.76-28.3-3.49-3.75.1-12.74.72-13.02.97-2.44,2.16,3.21,6.76,5.09,7.08,6.65,1.11,13.81-.45,20.56-.11.85.04,4.53.76,3.8,2.38-.08.17-.31.19-.5.19-15.08-.44-29.09,6.62-39.77,16.96-4.95,4.79-7.7,11.39-9.62,18.48-.19.69.44.8.78.74,1.23-.34,6.08-5.47,7.25-6.36,2.53-1.92,5.2-3.65,7.99-5.16,15.25-8.26,36.94-12.76,51.3-.28.54.47,1.06.95,1.56,1.46,1.96,1.97,2.9-.99,2.98-2.83.07-1.71-.73-3-1.69-4.34-.06-.08-.12-.16-.18-.24ZM345.53,37.74c.89,0,1.61.72,1.61,1.61s-.72,1.61-1.61,1.61-1.61-.72-1.61-1.61.72-1.61,1.61-1.61Z"/>
    <circle class="cls-1" cx="276.2" cy="82.81" r="5.02"/>
  </g>
</svg>