<?xml version="1.0" encoding="UTF-8"?>
<svg id="Lag_2" xmlns="http://www.w3.org/2000/svg" viewBox="0 0 71.91 46.88">
  <defs>
    <style>
      .cls-1 {
        fill: #e78c3b;
      }
    </style>
  </defs>
  <g id="Layer_1">
    <path class="cls-1" d="M70.03,29.11c-3.27-4.38-7.97-6.63-12.72-9.07.06-1.34-.12-1.96,1.4-1.95,2.23.01,14.51,2.06,13.01-3.23-.7-2.49-1.15-4.53-2.96-6.46-1.91-2.04-4.49-3.5-6.97-4.72C52.91-.68,43.11-.08,33.49.18c-3.75.1-12.74.72-13.02.97-2.44,2.16,3.21,6.76,5.09,7.08,6.65,1.11,13.81-.45,20.56-.11.85.04,4.53.76,3.8,2.38-.08.17-.31.19-.5.19-15.08-.44-29.09,6.62-39.77,16.96C4.7,32.44,1.95,39.04.03,46.13c-.19.69.44.8.78.74,1.23-.34,6.08-5.47,7.25-6.36,2.53-1.92,5.2-3.65,7.99-5.16,15.25-8.26,36.94-12.76,51.3-.28.54.47,1.06.95,1.56,1.46,1.96,1.97,2.9-.99,2.98-2.83.07-1.71-.73-3-1.69-4.34-.06-.08-.12-.16-.18-.24ZM64.4,9.52c.89,0,1.61.72,1.61,1.61s-.72,1.61-1.61,1.61-1.61-.72-1.61-1.61.72-1.61,1.61-1.61Z"/>
  </g>
</svg>